<svg width="280" height="48" viewBox="0 0 280 48" fill="none" xmlns="http://www.w3.org/2000/svg">
<g clip-path="url(#clip0_1250_3)">
<path d="M25.8001 35.7873C22.3001 34.4873 18.7001 34.2873 15.4001 35.1873C13.1001 35.7873 10.9001 36.9873 8.90012 38.4873L7.50009 39.6873L7.1001 40.0873L8.00009 40.8873C8.10009 40.8873 8.1001 40.9873 8.2001 41.0873C8.4001 41.2873 8.60012 41.3873 8.90012 41.5873L9.50009 41.9873L10.1001 41.4873C10.2001 41.3873 10.4001 41.1873 10.6001 41.0873C12.4001 39.5873 14.4001 38.5873 16.5001 38.0873C19.2001 37.3873 22.1001 37.4873 25.0001 38.5873C27.4001 39.4873 32.3001 40.5873 38.2001 38.0873L38.4001 37.9873L38.7001 37.6873C38.7001 37.5873 38.8001 37.5873 38.9001 37.4873C39.4001 36.8873 39.9001 36.2873 40.3001 35.5873L42.3001 32.4873L39.1001 34.2873C34.4001 36.8873 30.1001 37.3873 25.8001 35.7873Z" fill="#3578B8"/>
<path d="M12.1 24.9876C14.8 24.2876 17.7 24.3876 20.6 25.4876C23.8 26.6876 32 28.3876 41.2 20.0876L42.7 18.5876L42.8 18.4876L43.2 18.0876L43 17.5876C42.9 17.1876 42.7 16.6876 42.5 16.1876L42 14.7876L41 15.7876C40.9 15.9876 40.7 16.0876 40.5 16.2876C36.1 20.7876 29.3 25.3876 21.5 22.5876C18 21.2876 14.4 21.0876 11.1 21.9876C7.90001 22.8876 5.1 24.5876 2.5 26.9876V26.8876L1 28.4876C1 28.5876 0.900018 28.5876 0.800018 28.6876L0.5 28.9876L0.600006 29.3876C0.700006 29.8876 0.9 30.3876 1 30.8876L1.60001 32.4876L2.60001 31.1876C2.70001 30.9876 2.9 30.8876 3 30.6876C5.1 28.7876 8.00001 26.0876 12.1 24.9876Z" fill="#1A3B5B"/>
<path d="M2.40002 23.1874C4.70002 20.7874 7.30001 19.2874 10.1 18.4874C12.8 17.7874 15.7 17.8874 18.6 18.9874C27.6 22.2874 35.4 16.8874 38.8 13.9874L40.1 12.6874L40.6 12.2874L40.2 11.6874C39.9 11.3874 39.7 10.9874 39.4 10.5874L38.8 9.78735L38.1 10.4874C38 10.5874 37.8 10.7874 37.7 10.8874C33.5 14.8874 27 18.9874 19.6 16.1874C16.1 14.8874 12.5 14.6874 9.20001 15.5874C7.10001 16.1874 5.10001 17.1874 3.10001 18.4874L1 20.1874C0.8 20.3874 0.7 20.4874 0.5 20.6874L0.300018 20.8874V21.1874C0.200018 21.8874 0.200006 22.5874 0.100006 23.1874L0 25.6874L1.70001 23.8874C1.90001 23.6874 2.10002 23.3874 2.40002 23.1874Z" fill="#1A3B5B"/>
<path d="M28.7 42.5874C28.4 42.4874 28.2 42.3874 27.9 42.2874C24.4 40.9874 20.8 40.7874 17.5 41.6874C16.8 41.8874 16.1 42.0874 15.4 42.3874L13 43.4874L12.4 43.7874L14.4 44.4874C15 44.6874 15.6 44.8874 16.2 45.0874L16.5 45.1874L16.8 45.0874C17.1 44.9874 17.4 44.7874 17.7 44.7874C17.9 44.7874 18.1 44.6874 18.3 44.5874C20.7 43.9874 23.3 43.9874 26.1 44.8874C26.4 44.9874 26.6 45.0874 26.9 45.1874L27.4 45.3874L27.7 45.2874C28.4 45.0874 29.2 44.8874 29.8 44.5874L32.6 43.5874L29.7 42.8874C29.4 42.7874 29 42.6874 28.7 42.5874Z" fill="#1065B7"/>
<path d="M44 21.8875L42.5 23.3875C42.3 23.5875 42.1001 23.7875 41.9001 23.9875C37.8001 27.8875 31.2 32.0874 23.8 29.2874C20.3 27.9874 16.7001 27.7875 13.4001 28.6875C10.3001 29.5875 7.50003 31.1875 5.00003 33.5875L3.70004 34.9875L3.30005 35.4875L3.70004 36.0875C4.00004 36.4875 4.20005 36.7875 4.40005 37.1875L5.00003 38.0875L5.70004 37.1875C5.80004 37.0875 6.00004 36.8874 6.10004 36.7874C8.50004 34.1874 11.1 32.5874 14.1 31.7874C16.8 31.0874 19.7 31.1874 22.6 32.2874C25.1 33.1874 27.7 33.4875 30.3 33.1875C34.9 32.6875 39.5 30.0875 42.9001 27.1875C43.1001 26.9875 43.3 26.8875 43.5 26.6875L43.8 26.3875V26.0875C43.8 25.4875 43.9001 24.7875 43.9001 24.1875L44 21.8875Z" fill="#1A3B5B"/>
<path d="M6.00017 12.6877C6.60017 12.3877 7.30021 12.1876 7.90021 11.9876C10.6002 11.2876 13.5002 11.3876 16.4002 12.4876C18.3002 13.1876 20.2002 13.4876 22.3002 13.4876C26.5002 13.4876 30.7002 11.9876 34.6002 9.08765L36.1002 7.88763L36.6002 7.48764L35.7002 6.78763C35.4002 6.48763 35.0002 6.18764 34.6002 5.98764L34.0002 5.58765L33.5002 5.98764C33.3002 6.08764 33.2002 6.28763 33.0002 6.38763C27.7002 10.3876 22.4002 11.4876 17.4002 9.58765C13.8002 8.28765 10.2002 7.98765 6.60019 9.08765C6.30019 9.18765 6.00019 9.28763 5.60019 9.38763L5.40021 9.48764L5.10019 9.78763C5.10019 9.88763 5.00021 9.88764 4.90021 9.98764C4.50021 10.5876 4.00019 11.0877 3.60019 11.6877L1.7002 14.5876L4.8002 12.9876C5.3002 12.9876 5.70018 12.7877 6.00017 12.6877Z" fill="#1065B7"/>
<path d="M14.2 5.88748L14.5 5.98749C15.8 6.48749 17.8 6.98749 20.3 6.98749C22.9 6.98749 25.4 6.38748 27.9 5.38748L31 3.88748L28.9 3.1875C28.3 2.9875 27.7 2.7875 27 2.6875H26.7L26.4 2.78748C26.1 2.88748 25.8 3.0875 25.5 3.1875C22.5 4.2875 19.5 4.4875 16.6 3.6875C16.3 3.5875 16 3.48748 15.7 3.38748L15.4 3.28748L15.1 3.38748C14.5 3.58748 13.9 3.78749 13.3 4.08749L11 5.08749L13.4 5.78748C13.6 5.68748 13.9 5.78748 14.2 5.88748Z" fill="#3578B8"/>
</g>
<path d="M59.1009 31V16.4545H65.1662C66.2552 16.4545 67.1667 16.6084 67.9006 16.9162C68.6392 17.224 69.1932 17.6548 69.5625 18.2088C69.9366 18.7628 70.1236 19.4044 70.1236 20.1335C70.1236 20.6875 70.0076 21.1823 69.7756 21.6179C69.5436 22.0488 69.224 22.4062 68.8168 22.6903C68.4096 22.9744 67.9384 23.1733 67.4034 23.2869V23.429C67.9905 23.4574 68.5327 23.616 69.0298 23.9048C69.5317 24.1937 69.9342 24.5961 70.2372 25.1122C70.5402 25.6236 70.6918 26.2296 70.6918 26.9304C70.6918 27.7116 70.4929 28.41 70.0952 29.0256C69.6974 29.6364 69.1222 30.1193 68.3693 30.4744C67.6165 30.8248 66.7027 31 65.6278 31H59.1009ZM62.6165 28.1662H64.7898C65.5521 28.1662 66.1132 28.0218 66.473 27.733C66.8376 27.4441 67.0199 27.0417 67.0199 26.5256C67.0199 26.1515 66.9323 25.8295 66.7571 25.5597C66.5819 25.285 66.3333 25.0743 66.0114 24.9276C65.6894 24.776 65.3035 24.7003 64.8537 24.7003H62.6165V28.1662ZM62.6165 22.4347H64.5625C64.946 22.4347 65.2869 22.3707 65.5852 22.2429C65.8835 22.1151 66.1155 21.9304 66.2812 21.6889C66.4517 21.4474 66.5369 21.1562 66.5369 20.8153C66.5369 20.3277 66.3641 19.9441 66.0185 19.6648C65.6728 19.3854 65.2064 19.2457 64.6193 19.2457H62.6165V22.4347ZM72.3821 31V16.4545H75.8977V28.1449H81.9489V31H72.3821ZM96.9311 23.7273C96.9311 25.3277 96.6233 26.6842 96.0078 27.7969C95.3923 28.9096 94.5589 29.7547 93.5078 30.3324C92.4614 30.91 91.2872 31.1989 89.9851 31.1989C88.6783 31.1989 87.5017 30.9077 86.4553 30.3253C85.4089 29.7429 84.5779 28.8977 83.9624 27.7898C83.3516 26.6771 83.0462 25.3229 83.0462 23.7273C83.0462 22.1269 83.3516 20.7704 83.9624 19.6577C84.5779 18.545 85.4089 17.6998 86.4553 17.1222C87.5017 16.5445 88.6783 16.2557 89.9851 16.2557C91.2872 16.2557 92.4614 16.5445 93.5078 17.1222C94.5589 17.6998 95.3923 18.545 96.0078 19.6577C96.6233 20.7704 96.9311 22.1269 96.9311 23.7273ZM93.3374 23.7273C93.3374 22.7803 93.2024 21.9801 92.9325 21.3267C92.6674 20.6733 92.2839 20.1785 91.782 19.8423C91.2848 19.5062 90.6858 19.3381 89.9851 19.3381C89.2891 19.3381 88.6901 19.5062 88.1882 19.8423C87.6863 20.1785 87.3004 20.6733 87.0305 21.3267C86.7654 21.9801 86.6328 22.7803 86.6328 23.7273C86.6328 24.6742 86.7654 25.4744 87.0305 26.1278C87.3004 26.7812 87.6863 27.276 88.1882 27.6122C88.6901 27.9484 89.2891 28.1165 89.9851 28.1165C90.6858 28.1165 91.2848 27.9484 91.782 27.6122C92.2839 27.276 92.6674 26.7812 92.9325 26.1278C93.2024 25.4744 93.3374 24.6742 93.3374 23.7273ZM108.529 21.206C108.449 20.9077 108.33 20.6449 108.174 20.4176C108.018 20.1856 107.826 19.9891 107.599 19.8281C107.371 19.6671 107.111 19.5464 106.817 19.4659C106.524 19.3807 106.202 19.3381 105.852 19.3381C105.146 19.3381 104.535 19.5085 104.019 19.8494C103.508 20.1903 103.112 20.6875 102.833 21.3409C102.554 21.9896 102.414 22.7779 102.414 23.706C102.414 24.6387 102.549 25.4342 102.819 26.0923C103.089 26.7505 103.479 27.2524 103.991 27.598C104.502 27.9437 105.122 28.1165 105.852 28.1165C106.496 28.1165 107.04 28.0123 107.485 27.804C107.935 27.5909 108.276 27.2902 108.508 26.902C108.74 26.5137 108.856 26.0568 108.856 25.5312L109.509 25.6094H105.972V23.0455H112.244V24.9702C112.244 26.2723 111.967 27.3873 111.413 28.3153C110.863 29.2434 110.106 29.956 109.14 30.4531C108.179 30.9503 107.073 31.1989 105.823 31.1989C104.436 31.1989 103.217 30.8982 102.165 30.2969C101.114 29.6955 100.295 28.8385 99.7081 27.7259C99.121 26.6084 98.8274 25.2827 98.8274 23.7486C98.8274 22.5554 99.005 21.4972 99.3601 20.5739C99.7152 19.6458 100.21 18.8598 100.844 18.2159C101.484 17.572 102.222 17.0843 103.06 16.7528C103.903 16.4214 104.81 16.2557 105.781 16.2557C106.623 16.2557 107.407 16.3764 108.131 16.6179C108.861 16.8594 109.504 17.2003 110.063 17.6406C110.627 18.081 111.084 18.6042 111.434 19.2102C111.784 19.8163 112.002 20.4815 112.087 21.206H108.529ZM123.861 21.206C123.781 20.9077 123.662 20.6449 123.506 20.4176C123.35 20.1856 123.158 19.9891 122.931 19.8281C122.703 19.6671 122.443 19.5464 122.15 19.4659C121.856 19.3807 121.534 19.3381 121.184 19.3381C120.478 19.3381 119.867 19.5085 119.351 19.8494C118.84 20.1903 118.444 20.6875 118.165 21.3409C117.886 21.9896 117.746 22.7779 117.746 23.706C117.746 24.6387 117.881 25.4342 118.151 26.0923C118.421 26.7505 118.811 27.2524 119.323 27.598C119.834 27.9437 120.454 28.1165 121.184 28.1165C121.828 28.1165 122.372 28.0123 122.817 27.804C123.267 27.5909 123.608 27.2902 123.84 26.902C124.072 26.5137 124.188 26.0568 124.188 25.5312L124.841 25.6094H121.304V23.0455H127.576V24.9702C127.576 26.2723 127.299 27.3873 126.745 28.3153C126.195 29.2434 125.438 29.956 124.472 30.4531C123.511 30.9503 122.405 31.1989 121.155 31.1989C119.768 31.1989 118.549 30.8982 117.498 30.2969C116.446 29.6955 115.627 28.8385 115.04 27.7259C114.453 26.6084 114.159 25.2827 114.159 23.7486C114.159 22.5554 114.337 21.4972 114.692 20.5739C115.047 19.6458 115.542 18.8598 116.176 18.2159C116.816 17.572 117.554 17.0843 118.392 16.7528C119.235 16.4214 120.142 16.2557 121.113 16.2557C121.955 16.2557 122.739 16.3764 123.463 16.6179C124.193 16.8594 124.837 17.2003 125.395 17.6406C125.959 18.081 126.416 18.6042 126.766 19.2102C127.116 19.8163 127.334 20.4815 127.419 21.206H123.861ZM129.648 31V16.4545H139.79V19.3097H133.163V22.2926H139.271V25.1548H133.163V28.1449H139.79V31H129.648ZM141.991 31V16.4545H148C149.089 16.4545 150.029 16.651 150.82 17.044C151.615 17.4323 152.228 17.991 152.659 18.7202C153.09 19.4446 153.305 20.304 153.305 21.2983C153.305 22.3068 153.085 23.1638 152.645 23.8693C152.205 24.5701 151.58 25.1051 150.77 25.4744C149.96 25.839 149.001 26.0213 147.893 26.0213H144.094V23.2514H147.24C147.77 23.2514 148.213 23.1828 148.568 23.0455C148.928 22.9034 149.2 22.6903 149.385 22.4062C149.57 22.1174 149.662 21.7481 149.662 21.2983C149.662 20.8485 149.57 20.4768 149.385 20.1832C149.2 19.8849 148.928 19.6624 148.568 19.5156C148.208 19.3641 147.766 19.2884 147.24 19.2884H145.507V31H141.991ZM150.18 24.3523L153.803 31H149.967L146.416 24.3523H150.18ZM162.215 22.392V25.0625H155.482V22.392H162.215Z" fill="black"/>
<path d="M170.228 25.7727H173.069L174.277 27.3139L175.86 29.1321L178.297 32.1364H175.115L173.41 30.098L172.402 28.6491L170.228 25.7727ZM178.396 23.7273C178.396 25.3277 178.088 26.6842 177.473 27.7969C176.857 28.9096 176.024 29.7547 174.973 30.3324C173.926 30.91 172.752 31.1989 171.45 31.1989C170.143 31.1989 168.967 30.9077 167.92 30.3253C166.874 29.7429 166.043 28.8977 165.427 27.7898C164.816 26.6771 164.511 25.3229 164.511 23.7273C164.511 22.1269 164.816 20.7704 165.427 19.6577C166.043 18.545 166.874 17.6998 167.92 17.1222C168.967 16.5445 170.143 16.2557 171.45 16.2557C172.752 16.2557 173.926 16.5445 174.973 17.1222C176.024 17.6998 176.857 18.545 177.473 19.6577C178.088 20.7704 178.396 22.1269 178.396 23.7273ZM174.802 23.7273C174.802 22.7803 174.667 21.9801 174.397 21.3267C174.132 20.6733 173.749 20.1785 173.247 19.8423C172.75 19.5062 172.151 19.3381 171.45 19.3381C170.754 19.3381 170.155 19.5062 169.653 19.8423C169.151 20.1785 168.765 20.6733 168.495 21.3267C168.23 21.9801 168.098 22.7803 168.098 23.7273C168.098 24.6742 168.23 25.4744 168.495 26.1278C168.765 26.7812 169.151 27.276 169.653 27.6122C170.155 27.9484 170.754 28.1165 171.45 28.1165C172.151 28.1165 172.75 27.9484 173.247 27.6122C173.749 27.276 174.132 26.7812 174.397 26.1278C174.667 25.4744 174.802 24.6742 174.802 23.7273ZM189.268 16.4545H192.776V25.8366C192.776 26.9209 192.518 27.8655 192.002 28.6705C191.486 29.4706 190.766 30.0909 189.843 30.5312C188.92 30.9669 187.847 31.1847 186.626 31.1847C185.39 31.1847 184.31 30.9669 183.387 30.5312C182.464 30.0909 181.746 29.4706 181.235 28.6705C180.724 27.8655 180.468 26.9209 180.468 25.8366V16.4545H183.984V25.5312C183.984 26.0331 184.093 26.4806 184.31 26.8736C184.533 27.2666 184.843 27.5743 185.241 27.7969C185.638 28.0194 186.1 28.1307 186.626 28.1307C187.151 28.1307 187.611 28.0194 188.004 27.7969C188.401 27.5743 188.711 27.2666 188.934 26.8736C189.156 26.4806 189.268 26.0331 189.268 25.5312V16.4545ZM198.495 16.4545V31H194.98V16.4545H198.495ZM213.906 21.7244H210.354C210.307 21.3598 210.21 21.0308 210.063 20.7372C209.916 20.4437 209.722 20.1927 209.481 19.9844C209.239 19.776 208.953 19.6174 208.621 19.5085C208.295 19.3949 207.933 19.3381 207.535 19.3381C206.829 19.3381 206.221 19.5109 205.71 19.8565C205.203 20.2022 204.812 20.7017 204.538 21.3551C204.268 22.0085 204.133 22.7992 204.133 23.7273C204.133 24.6932 204.27 25.5028 204.545 26.1562C204.824 26.8049 205.215 27.295 205.717 27.6264C206.223 27.9531 206.822 28.1165 207.513 28.1165C207.902 28.1165 208.254 28.0668 208.572 27.9673C208.894 27.8679 209.175 27.7235 209.417 27.5341C209.663 27.34 209.864 27.1056 210.021 26.831C210.182 26.5516 210.293 26.2367 210.354 25.8864L213.906 25.9077C213.844 26.5516 213.657 27.1861 213.344 27.8111C213.037 28.4361 212.613 29.0066 212.073 29.5227C211.533 30.0341 210.875 30.4413 210.099 30.7443C209.327 31.0473 208.442 31.1989 207.442 31.1989C206.126 31.1989 204.947 30.91 203.906 30.3324C202.869 29.75 202.049 28.9025 201.448 27.7898C200.847 26.6771 200.546 25.3229 200.546 23.7273C200.546 22.1269 200.852 20.7704 201.462 19.6577C202.073 18.545 202.899 17.6998 203.941 17.1222C204.983 16.5445 206.15 16.2557 207.442 16.2557C208.323 16.2557 209.138 16.3788 209.886 16.625C210.634 16.8665 211.292 17.2216 211.86 17.6903C212.428 18.1544 212.89 18.7249 213.245 19.402C213.6 20.0791 213.82 20.8532 213.906 21.7244ZM215.917 31V16.4545H219.433V22.6051H219.625L224.433 16.4545H228.574L223.417 22.946L228.666 31H224.461L220.839 25.2827L219.433 27.0582V31H215.917ZM229.96 31V16.4545H240.102V19.3097H233.476V22.2926H239.584V25.1548H233.476V28.1449H240.102V31H229.96ZM242.304 31V16.4545H248.312C249.402 16.4545 250.341 16.651 251.132 17.044C251.928 17.4323 252.541 17.991 252.972 18.7202C253.402 19.4446 253.618 20.304 253.618 21.2983C253.618 22.3068 253.398 23.1638 252.957 23.8693C252.517 24.5701 251.892 25.1051 251.082 25.4744C250.273 25.839 249.314 26.0213 248.206 26.0213H244.406V23.2514H247.553C248.083 23.2514 248.526 23.1828 248.881 23.0455C249.241 22.9034 249.513 22.6903 249.697 22.4062C249.882 22.1174 249.974 21.7481 249.974 21.2983C249.974 20.8485 249.882 20.4768 249.697 20.1832C249.513 19.8849 249.241 19.6624 248.881 19.5156C248.521 19.3641 248.078 19.2884 247.553 19.2884H245.82V31H242.304ZM250.493 24.3523L254.115 31H250.28L246.729 24.3523H250.493Z" fill="#03284C"/>
<defs>
<clipPath id="clip0_1250_3">
<rect width="44" height="48" fill="white"/>
</clipPath>
</defs>
</svg>
